<svg width="416.5mm" height="250.1mm" version="1.1" viewBox="0 0 416.5 250.1" xmlns="http://www.w3.org/2000/svg">
 <g transform="translate(49.3 -92.72)">
  <path id="ID-MA" d="m39.33 319.2-2.465-0.1105-2.323-1.138-0.2526-0.5214 1.659-0.6005 2.149 0.1105 1.628 0.806 0.09497 0.8217zm-32.03-4.551 2.908 1.027 2.75 0.2371 1.375-0.2371 0.6954 0.4265 0.04778 0.3948-2.497 2.639-0.3004 0.0788-5.341-1.77-0.7585-0.4742-1.075-2.07zm80.93 6.89-1.059 0.0788-0.01792-0.3637 2.513-2.718 1.944-1.059 0.9324-1.565 1.422-1.565 0.5214-0.1422 3.982 1.28-0.9956 0.9798-4.994 1.928-1.707 1.217-0.2371 0.6953-1.817 1.169zm-28.35-7.996-1.991-0.4742-3.018-3.698-0.221-0.6163 0.2371-1.154 0.1583-0.6005 0.4426-0.4898 2.576-0.3476 3.24 0.8692 0.6163 0.5059 0.5376 2.276zm-83.31-10.67 1.28 0.0179 0.6795 2.118-2.228 0.095-2.655 0.806-1.422 1.011-1.533 1.881-2.323 1.233-3.84-0.4426-4.314-0.8534-1.58 0.0299-3.635 0.7585-3.524 2.829-0.4742 0.095-0.2843-0.3948 1.106-4.219 4.362-5.31 5.831 1.723 4.188-0.727 1.96-1.691 2.039-0.9482 3.635-0.9165 0.3321 0.2371 0.1266 1.059zm18.44-0.5531-0.4109 0.2055-0.5376-0.1105-0.3793-0.6479 0.5847-3.161 0.5686-0.3631 2.671 0.8692 0.09497 0.4109-0.2055 1.106zm100.6-3.84-2.118-0.6638-0.3631-0.8376 0.4898-0.7586 0.8217-0.3004 3.682-0.3793 0.3321 0.221-1.169 1.422zm18.24-8.281-1.154 0.4898-0.6005-0.1105-0.964 0.7901 1.059 5.168v1.122l-1.343 4.046-1.58 2.054-4.678 3.445-1.565 2.528-0.095 1.991-0.316 0.537-0.727 0.3793-4.551-0.4426-0.7585-0.3793-0.6638-3.635 2.876-4.962-0.3637-0.806 1.659-4.504 1.896-1.58 0.7428-0.2843 1.438-1.359 1.944-2.355 2.149-3.793 1.201-0.6479 2.054-0.221 1.549 0.7743zm5.12-2.781 1.422 2.118 0.2371 1.011-0.4265 0.8217-0.2843 0.0789-1.327-0.9166-0.6479-1.406-1.564-0.2843-1.849 0.4109-0.8059-0.1583-0.221-0.3476 0.1583-0.7586 0.4581-0.316zm-89.46 2.766-0.7743 0.2688-2.386-1.485-0.3637-0.6479 0.09497-0.3321 0.5059-0.5686 1.928-1.169 2.197 1.201 0.1266 0.316-0.6321 1.565zm170.8-23.44-0.4742 0.5214-0.9956 2.291-0.1583 1.043-0.9956 1.928-0.4109-0.3632-0.727 0.1105-0.1105 0.6321 0.2688 0.727 0.4742 0.2688v0.6321h-0.5214l-0.5214 0.316-0.2055 1.09-1.043 1.612-0.8375 0.7902h-0.4742l-0.885-0.6795 0.1105-0.727 0.7902-0.727 0.5214-1.248 0.1105-1.312 0.6321-0.9324-0.4742 0.0478-0.3637-0.4742-0.5214-1.406 0.1583-0.7901 1.043-0.7269 1.154-0.4109-0.0478-1.154 0.2688-0.3637 1.09-0.5214 0.4742-0.8376 1.565-1.248 0.8376 0.0478 0.4742 0.4742zm-58.14-11.35-0.964 0.3948-1.296-0.4109-0.6954-0.6954 0.0788-1.96-0.3637-3.398-0.7586-2.165 0.1738-0.5059 1.77-0.5059 2.86 5.452v1.786zm53.49-6.938 0.1583 1.612 0.6321 1.723-0.9956 0.2055v0.4742l2.086 1.043-0.0478 0.5214-0.2688 0.4109-0.6322 0.1583-1.201-0.5214-0.0478 0.7901 0.6322 0.4109 0.1105 0.3631-0.1105 0.6795-0.4109 0.2055-0.5692-0.1105-0.9956-0.7902-0.2688 0.2055v0.4742l1.47 1.043 0.316 0.5686 0.8849 0.5214 0.5686 0.9324-0.5686 3.65-0.4742 1.454-1.043 1.77-1.991 1.043-0.7901-0.1583-0.3637 0.316 0.5686 1.564 0.8376 0.5214-0.1105 0.7901-1.722 1.565-1.406-0.4109-0.5214 0.2688-0.3632 0.885 0.1583 0.5214 0.7901-0.2688-0.0478 0.7902-0.9956 1.612-1.09 0.727-2.086 2.402-0.0478 1.043-0.7902 0.9956-3.24 1.406-0.4742 0.5214-0.727-0.0788-0.5686-1.406-0.5214-0.4742h-1.09l-1.201-2.086v-0.5686l0.3637-0.316 0.5686-2.402 0.3631-4.915 0.4742-1.201-0.0478-0.6796 0.4742-1.564-0.2055-2.766-0.6795-2.402 1.043-0.1105-0.6796-1.881 0.3637-0.8849v-0.7901l0.6795-0.5692 0.2688 0.2688v0.5214l0.4109 0.0478 0.7901-0.4742h0.7901l0.1583 1.043 0.316 0.2688 0.5214-0.1577 0.727-0.7269 0.8376-2.086v-0.316l-0.7901-0.4742 0.0478-0.4742 0.2688-0.4742 0.8376-0.6322 0.1105-0.5214 0.6322-0.5214 0.4109-0.9956-0.1105-0.3632-0.4742-0.2055-0.7901 0.4742-1.154-0.9324-1.312-0.1583-0.7901-0.8376 0.1105-0.5214 0.9956-1.09 1.565 0.9956 0.5686 0.0478 2.039-1.564 0.9956-2.608 1.201-0.7901 0.1105-0.9956-0.316-1.359 0.2688-0.727 1.406-1.928 0.9956-0.2688 0.5692 0.316 1.517 2.607 0.7901 0.6795 0.0478 0.5214 0.6795 1.043 0.0478 1.77 1.312 1.675-0.1105 0.7901zm-48.56 5.025-2.892 3.761-0.2688-0.0788-0.0179-0.4898 2.544-7.902 0.5376-0.9482 0.9324-0.8849 3.508-8.818 0.6479-0.2688 0.9008 0.1266 0.5214 1.106-2.133 6.938-0.8376 1.027-1.343 0.7901-1.849 2.528-0.4426 1.596zm-121.2-61.28-3.287 0.6479-0.2055-0.2055 0.4109-0.9166-0.01792-1.549 0.8376-0.6163 1.912 0.1893 1.454 1.438-0.02986 0.316zm2.75-2.607 1.296 0.4581 0.5686-1.027 0.4109 0.0478 0.4581 1.233v1.881l-2.276 0.3476-0.3476-0.1422-1.896-2.655-0.04778-0.4898 0.3476-0.3321 0.4109-0.0299zm-7.886 2.845-1.011 1.833-1.58 1.327-3.334 0.964-0.6005-0.0633 2.86-2.702 0.3476-0.7111-0.4426-0.1899-5.784 3.603-1.185-0.0788-0.6637-0.8376-0.04778-1.327 1.422-1.565 1.707-1.09 4.283-0.8218 1.217-1.501 1.122-0.4581 0.8692 0.2055 0.9008 0.5214 0.2371 0.3793zm-19.2-7.08-3.066-0.8849-1.09-1.075 1.185-0.9482 1.233 0.1583 1.485 1.391 0.7269 1.043zm3.84-3.018-2.75-0.0179-0.9482-0.7901 1.912-1.738 1.312-0.2055 0.9166 0.727-0.06331 1.786zm-21.3-2.971 2.955 1.865 0.3321 1.533-1.628-0.0788-0.3476 0.5686 0.316 1.169 1.185 1.075 0.8376-0.316 0.4898-0.5214 3.161 1.043-0.6479 6.527-0.5376 0.9956-0.8534 0.2526-1.043-0.2843-1.138 0.2843-2.449 1.011-4.077 2.181-4.741 1.47-5.057-1.802-3.445-1.596-3.824-2.576-5.42-5.136-0.7427-2.054-0.2216-4.535 0.4265-0.885 1.944-1.327 0.6479 0.1422 0.6795 0.9482 0.9008 0.7428 0.964 0.0478 0.8692-1.185 1.075-0.6005 3.619-0.9482 8.771-0.3476 2.449 0.4109zm76.6-6.448 6.116 2.434 1.928 0.095 6.764-0.6006 1.043 0.2688 5.815 4.125 1.122 2.86v2.165l0.4265 1.438 0.7111 0.8217 1.912-0.0633 1.312 0.316 1.011 1.011 1.296 3.777-0.1105 0.9798-0.9482 1.343-0.3948 4.014 0.2371 1.28-5.847-2.291-1.596-1.675-4.362-2.544-7.222-2.434-3.903-1.991-0.885-1.169-0.04778-1.343-1.248-0.9955-0.6321-0.2055-6.463-0.4898-3.714-0.5214-0.4581 0.5059 0.1893 0.8534 1.154 1.359 0.3004 0.885-0.3948 0.9008-0.7427 0.1899-5.784-1.438-1.659-0.1266-2.576-0.9798-1.185-0.727-4.551 0.1899-0.5059-0.4109 0.2526-0.6163 1.09-0.9798 0.06331-1.059-1.09-0.7744-1.391-0.2055-3.034 1.912-2.323 2.165-0.3948 0.7428-1.612 1.359-3.161 0.6954-0.7427-0.0299-1.027-0.4265-0.7743-0.6638-2.781-4.125-2.323-1.565-0.9798-3.73-1.09 0.0299-1.233 1.248-0.9798 2.386-0.5214 3.524-0.7269 1.011-0.6795 0.1738-1.47 2.639-0.5214 2.197-0.2526-0.3948-0.3948-1.644 0.8218-1.817 0.1893-1.975-1.375-2.133-0.7111-2.165 3.492-2.718 5.152-6.258 6.274 0.1583 4.472-0.2055 7.822 0.2843 3.366-0.7586 1.391-1.122 0.5692 0.0478 0.5059 0.3004 0.2055 0.5531-0.04778 2.133 0.8376 0.964 0.8692 0.5059 2.181-0.4581 3.651-2.323 0.5214-0.4265 0.2843-1.106 0.7585-0.3321 3.366-0.2371 2.813 0.8534 3.872 1.612z" style="stroke-width:1.58" title="Maluku"/>
  <path id="ID-PA" d="m309.1 323.2-3.967-0.221-4.441-0.7744-0.5692-0.2843-0.3321-0.9008 0.1266-0.3321 4.314-3.777 2.702-0.7586 0.3632 0.0788 0.4265 1.391 2.023 4.283 0.0299 0.5376zm-7.728-4.314-4.109 3.366-2.007 0.9008-2.181 0.4426-0.7427-0.0788-0.6163-0.5059-1.027-0.2843-9.419-0.6322-4.504 1.09-0.8059 0.5531-0.7902 0.095-0.3793-0.6637 0.095-0.8217 2.56-6.685 4.852-9.371 3.097-4.678 0.8376-0.9008 4.709-3.319 3.856-1.517 7.554-1.406 3.35 0.1738 1.248 0.3476 0.5847 0.5214 1.707 2.86 0.9324 0.9798 2.086 0.3948 0.9798 1.549-1.517 4.267-1.865 2.987-0.8534 4.314-0.9008 1.154-1.817 1.675-3.145 0.6954zm0.6953-41.89 0.964 0.7902 2.054 0.3793 1.296 1.912-1.565 0.9798-1.185-0.4426-1.833-2.418-0.2055-0.806zm-63.83-137.2 4.52 0.9008 9.419 0.6954 2.513 1.059 0.1422 0.2526-0.6795 0.727-5.089 0.8692-4.014 1.312-8.866-0.7902-6.353-1.517-1.406-1.027-1.628-0.7112-4.03-1.217-1.612-0.316-1.786 0.1266-3.303-0.5376-1.707-2.023 1.47-0.4426 1.849 0.6005 17.51 1.248zm70.28 7.38 1.896 0.0179 3.097 1.043 9.877 4.52 10.21 5.31 2.829 0.4109 4.03-0.4898 2.023-0.964 1.565 0.095 0.2688 0.8534 1.09 1.343 3.018 1.391 1.454-0.2688 0.1583-0.4264 2.623 0.0478 4.219 0.6163 2.481 0.8849 0.5376 0.4109 0.1899 0.6479-0.3954 0.9956-0.7427 0.7744-0.1738 0.5531 0.727 0.6005 2.639-0.7427 3.919-0.1583 0.964 0.0788 0.095 0.1893v101.3l-1.075 0.1105-1.059 3.113 0.6321 0.8059-0.1105 0.5376-1.454 2.766-0.8376 0.8376-0.1105 1.28 0.3321 2.955 0.8692 1.896 1.28 1.312 0.8692 0.0788 0.6795-0.3638 0.0299 61.3-1.723-1.075-1.849-0.5059-0.9482-0.6638-2.307-2.924-4.061-3.777-2.876-4.693-7.506-6.416-4.852-3.556-1.817-2.07-0.2843-0.4581 0.1893-1.075 2.181-1.817 1.975-3.619 0.3793-1.47-2.576 1.122-0.4426 1.849 0.0788 1.659-2.039 1.169-1.359 0.4898-5.563-0.0179-2.513 0.3004-2.497 1.438-3.034 0.7269-1.422 0.0788-1.106-0.1266-1.375-0.8692-1.58-2.212-3.666 1.391-3.018 2.212-0.9482 2.039-0.7901 0.095-1.691-3.24-0.316-1.375 1.849-2.544 0.1893-3.413 0.316-0.3476 1.896-0.9008 0.3793-1.296-0.0633-1.643 1.406-3.524 1.043-1.106 0.0299-0.806-0.6953-0.6954-1.707-0.6321-1.975-1.375-0.9956-2.291-0.964-1.185-2.702-1.786-2.544-1.296-0.2371-0.6321 0.3321-0.221 7.111 0.2688 1.643 0.9956 1.517 0.3476 3.429-0.3476 1.28-2.086-1.28 0.5686-0.3948 0.5376-3.255 0.3004-5.326-1.628-2.702-1.233-4.567-4.03-0.4898-0.6321-0.0299-0.8692 0.964-0.7744 1.264-0.0299 1.501 0.5214 1.154 0.0299 1.738-1.122 2.845-0.3476 2.023 0.6954 1.77 1.77 1.612 1.011 0.806 0.221 1.359-0.3004-1.58-0.3631-1.106-0.5847-1.96-1.77-0.8376-0.4742-1.343-0.5214-1.501-0.1893-5.484-2.876-0.4109-1.722 1.043-0.3004-0.7743-1.043-5.341-5.12-1.201-1.596-0.806-1.802-0.5059-1.738 0.0788-1.343-0.7585-2.276-1.896-3.508 0.0299-3.192-2.339-0.6479-1.201-1.043 0.6479-0.9482 4.377-2.133-0.2843-0.2371-0.7427-0.0179-2.544 0.3948-1.565 0.9008-2.133 0.6005-0.3948-0.2371-0.5059-2.845 0.5692-5.152-0.221-0.7901-0.7901 1.391-2.402-0.9008-4.662-3.066-0.7744-0.9324-2.386-1.549-1.485-0.3948-0.9166-0.5692-0.1266-0.316 0.6321-0.5686-2.054-0.0179-2.987-1.343-2.86-2.07-0.9798-1.169-1.58 0.6954-5.657-1.596-4.946-0.6479-0.6479-0.6637-4.583-2.118-7.427-3.951-2.781 0.0299-6.1-2.465-0.7428-0.6638-0.9798-1.454-1.201-0.4898-3.477-0.1738-2.102 0.2526-8.17-1.77-2.623 0.221-2.655 0.6005-1.517-0.5376-5.847-3.334-2.576-1.09 2.592-3.745 1.675-1.28 1.027-2.181 1.675-2.576 3.619-4.488-1.422-0.6479h-0.7744l-1.928-0.9008-4.52-1.406-4.772-1.928-10.19-2.955-3.097-1.533-2.197-0.6479 1.802-3.982 1.549-1.928 2.576-1.533 0.3793-1.28v-1.802l2.45-1.28 3.919-3.587 0.964 3.935 0.7427 0.5686 1.122-0.2371 1.059-0.7585 0.1422-0.7901 0.4898-0.5847 0.7111 0.0633 0.1899 1.027-0.2843 1.912-0.7744 0.7111-0.2688 2.26 1.754 3.398 3.24 2.386 3.366 0.8692 5.895 0.6795 3.508-0.6637 1.501-0.7427 1.059-1.011 0.4109-0.9482-0.0478-0.6321 1.011-1.233 0.7744-0.537 2.165-0.6322 1.454-1.154-0.0478-0.4109-0.6638-0.5059 0.6322-0.806 3.919-1.691 0.806-1.248 0.5059-4.314 1.944-2.307 0.6322-0.0788 3.65-1.707 1.975-1.596 0.6795-1.185 1.723-4.504 0.0788-1.043-0.3004-1.248 0.6163-0.7744 1.438-0.9956 2.007-0.1577 1.375 0.0788 0.095 0.4581 0.2843 0.1899 1.517 0.3793 1.802 0.1583 2.355-0.2055 2.307-1.312 4.188-1.849 2.07-0.6479 1.264 0.1738 2.054-0.3476 1.233-0.8218 0.0633-0.4581-1.011-2.845-0.9956-0.4581-1.438-1.643 0.3004-1.944 1.928-1.011 1.975-0.4898 2.212-0.964 3.951-2.086 0.6954-0.8376 2.449-1.185 6.59-2.323 0.8218-0.0299 1.517 0.4426 1.28 1.454 2.26 1.738 9.64 3.413 6.622 1.58 2.418 1.517 1.201 1.612 1.517 1.296zm-107.8-22.33-1.533-0.0179-1.786-2.623 0.3004-1.58 0.7901-1.059 1.28-0.0788 1.154 0.5531 1.707 1.754-0.1266 1.643-0.7743 1.09zm15.22-12.66 2.829 0.0633 2.402 0.3793 2.56 1.691 1.533-1.185 0.8534-0.1105 1.043 0.6005 4.788 4.03 3.524 5.104 1.975-0.3476 2.718 1.217 0.5686 0.5686-1.28 1.138-2.039 1.138-2.924 0.6322-1.644-0.0299-1.375-1.027-0.7586-0.2371-1.58 0.0788-1.185 0.4265-0.9324-0.1893-1.391-1.375-1.233-4.994 0.0478-1.454-0.9008-1.944-0.7901-0.0788-2.86 1.359-2.829-2.402-1.043-0.2371 0.1266 0.8533-0.6638-0.2526-1.58-1.501-0.9798-2.102 0.4109-0.7744z" style="stroke-width:1.58" title="Papua"/>
  <path id="ID-PB" d="m163.9 209.4 1.201 1.422-7.901-3.54-0.2526-1.817 0.806 0.3004 1.96 1.501zm-92.4-59.42-1.944 0.0633-5.705-1.691-4.788-2.481-0.5214-0.6638 0.9166-0.8533 5.578-1.991 2.244-1.138 8.549-1.659 0.1266 0.8217 2.102 3.113 0.09497 4.061-1.485 0.9798zm-7.127-23.18-2.702 0.8692-2.497-0.8534 0.09497-0.5214 0.5847-0.5376 2.845-0.7901 2.45 0.8217zm26.47-8.66 0.9324 1.217 1.722-0.2371 1.043-0.4109 1.09 1.643-0.07884 3.018-0.9166 4.219-1.138 2.592-0.3321 0.4109-0.6321 0.1893-2.37-0.4426-3.224-2.671-0.5531-1.58-1.185-1.675 0.5531-0.8533-0.4265-1.154-0.6006-1.011-0.8849-0.3321-0.1105-0.3476 0.1105-0.3948 0.5686-0.316 5.357-1.754zm0.4898-2.734-0.7111 1.217-2.592 1.106-3.508 0.7427-2.307 0.2371-2.908-0.1583-0.9324 0.1583-0.8692 0.4426-0.3793-0.1266 1.391-1.596 1.043-0.8218 6.59-0.1893 2.102-0.4742 0.9955-1.106h1.248zm-8.502-6.779-3.856-0.4265-0.2526-1.533 0.6637-0.4898 3.666-1.09 1.264 0.4426 0.9008 0.7112 0.02986 0.4109-0.7112 1.185zm81.15 5.768 4.804 0.0789 0.1266-0.8849 6.179 0.1583 3.54 2.86-2.228 3.571 2.671 5.041 2.133 1.881 2.07 3.777-1.248 1.375-0.3793 3.967-3.635 3.271 0.9324 5.594 0.6163 1.359-0.3321 3.192 0.727 7.269 1.722 2.955 0.8376 0.2843 1.817 1.802 3.903 9.687 0.8692 0.0299 0.8534-0.727-1.422-5.642-0.0788-1.865 0.3948-0.9166 1.485-1.517 0.8376 0.1738 1.944 1.233 0.4109 1.438 0.1583 6.827-3.919 3.587-2.45 1.28v1.802l-0.3793 1.28-2.576 1.533-1.549 1.928-1.802 3.982 2.197 0.6479 3.097 1.533 10.19 2.955 4.772 1.928 4.52 1.406 1.928 0.9008h0.7744l1.422 0.6479-3.619 4.488-1.675 2.576-1.027 2.181-1.675 1.28-2.592 3.745-1.833-0.7744-4.235-3.556-0.1266-0.3476 1.154-4.456 0.6795-0.3476 3.951 0.4898 1.643 0.7111 0.5059-0.0478 1.027-0.7585-0.0478-0.2688-1.833-0.316-6.226-0.3948-1.517 1.169-0.5376 1.422-2.07 0.4426-1.485-2.133-0.9482-0.9324-1.833-0.4426-0.7111 2.576-1.011 0.5214-2.481-1.391-0.806-0.6953-0.5531-1.138 0.095-0.8376 0.6479-0.4742 0.0788-0.4426-0.4581-0.9798-0.9324-0.9324-0.3948-0.1738-2.75 1.438-2.766-1.485-2.528-4.393-0.885 0.4426-0.1105 0.2526 0.221 1.549-0.6953 0.1583-1.944-1.233-1.738-3.429-0.221-0.885 0.1266-0.3476 1.438-0.9166 0.1738-0.3793 0.0788-1.675-0.3948-2.023 0.6954-2.291 1.912-1.628 2.118-1.359 0.0478-2.039-0.9166-1.248-2.671 2.418-1.975 2.339-0.5059 4.172 0.0633 3.287-1.027 0.2055-1.675 1.138 0.6163 0.5847 0.6479 1.438-0.1105 0.9166-2.655 2.054-2.434 2.418-0.1105 0.4742 0.316 1.422 0.9482 0.8217 0.2688 1.011-3.777 3.967-2.054 1.675-1.027 0.095-4.14-0.4742-0.5376 0.3004-1.027 1.201-2.149-0.5376-1.77-2.386-0.8692-2.007 0.316-0.2526-0.2526-0.964-1.833-4.725 0.885-2.323 2.892-1.043 0.8376-0.6479 0.1899-0.4265-1.217-2.276-0.4265-0.1266-0.4581 0.2371-0.7427-0.6005-0.5847-2.212 0.5531-1.343-0.0788-0.4581-0.6163-0.7902-0.8218-0.2055-0.9482 0.3793-0.0299 1.422-0.2371 0.2371-0.3637 0.095-1.248-0.5847-1.833-2.465-0.1266-1.343-0.9798-1.865-2.497-1.96-4.093-2.544-1.169-0.3321h-2.276l-3.003 0.7744-3.382-4.899 0.2843-0.3321 4.678-2.212 1.896-0.3948 3.018 0.095 5.278 0.4898 1.675 0.4581 1.896 1.185 0.6479 0.8376 1.549 0.7111 3.271-2.355 4.82-6.353 2.386-1.375 1.422-0.4426 2.402-0.3321 1.738 0.8376 2.086 2.007 3.287 1.201 1.122-0.0633 1.564-0.6795 1.201 0.1422 0.8059 1.154-0.1583 1.438 0.1738 2.149 0.3948-0.5376 0.5059-3.982-0.1583-0.9639 0.3793-0.0788 0.5692 0.2688 1.707 3.492 0.3476 0.2055 0.1105-3.192-0.4581-1.264-0.6163-0.3793 1.612-1.533 2.023-0.964 1.122-1.644 0.0788-2.56-0.316-0.6637-0.6322 1.659-2.323 0.7744-0.4898-0.0478-0.8849-1.138 0.1893-0.3321 3.208-1.248 0.9166-0.7586-0.316-1.817-1.596 0.2688-6.29 3.35-2.813 0.2371-2.86-0.1893-1.043-0.5531-2.813-0.4898-2.639 0.3476-6.495 2.023-1.722-0.1105-2.276-0.9798-0.9482 0.2688-2.544 1.375-1.391-0.6795-0.3004-0.3476-0.3321-1.248-0.6479-0.8376-0.4742-0.1105-3.24 0.8218-1.722 1.075-1.517 0.3476-1.059-0.1266-3.903-3.176-1.327-0.5059-1.802-1.296-1.896-3.208-1.106-2.497-0.1105-1.77 1.201-1.312-0.3948-1.47-2.023-1.786-4.362-1.643-0.5214-0.6006 0.0299-0.4265-3.129-1.454-8.66-2.892 0.2688 0.6322 1.296 0.8533 0.0633 0.6005-1.233 1.027-2.181 0.7902-0.8217-1.343-1.817-0.7111-1.691 0.095-2.339-1.422 1.312-1.849 0.6479-1.628 0.6638-0.8533 3.255-0.6638 1.912-3.319 1.011-4.852-0.8376-2.592 7.048-2.402 0.5847 0.0788 0.095 0.3321 1.075 0.3476 5.389-0.9955 2.686-0.8692 1.233-1.928 5.136-4.251 1.944-1.217 2.528-1.027 4.488-1.075 7.633 0.6163 2.908 1.485 8.075 3.129 1.596 0.1422 5.499 4.804 1.517 0.4581zm-73.74-19.94 4.504 1.28 2.655 0.2526 4.377 2.497 0.3632 0.9482 0.2371 1.928-0.6954 1.501-1.122 1.596-2.355-1.312-1.738-0.1583-1.944 0.7428-1.565 0.0788-0.8376-0.5059-1.96-2.544-2.307-0.9166-2.212-3.271-0.5847-0.4581-2.039 0.2371 0.3476 1.312 2.766 2.924 2.671 1.233 1.596 0.2526 0.9324 0.5686 0.6954 1.169-0.7427 1.201-1.849 0.8692-2.434 0.3321-0.9008-0.316-0.4742-0.6322-0.7901-3.097-2.497 0.5531-1.264 1.154-0.8376-3.034-2.291 0.5686-1.881-0.221-3.176-1.075-0.6638-0.4426 0.5531-0.3476 0.6638 0.3321 3.334 0.2843 1.185-0.6479-0.7585-1.296-1.691 0.04778 0.1738 0.9798-1.343-0.3004-0.5531-1.011 0.2055-0.885 2.086-0.5059h2.307l5.768-0.9324 1.185-0.4581 0.5686 0.4109 1.327-0.1105-0.4581-0.4265 0.885-0.5376 1.122-0.1105zm-36.16 5.278-0.5059 0.2371-1.359-1.644-5.326-5.262-0.04778-0.316 0.3948-0.04778 0.9166 0.6005 5.594 4.504 0.6163 1.075 0.06331 0.4898z" style="stroke-width:1.58" title="Papua Barat"/>
 </g>
</svg>
