<svg width="393.9mm" height="234.4mm" version="1.1" viewBox="0 0 393.9 234.4" xmlns="http://www.w3.org/2000/svg">
 <g transform="translate(91.33 -43.57)">
  <path id="ID-KB" d="m2.319 222-0.6665-0.1195-0.9912-2.478 0.2564-0.5128 2.717-0.8032 1.06 0.239 0.9399 1.042 0.03423 0.4444-0.5469 1.077zm20.18-19.72 0.9229 0.1027 0.7178-0.5639 1.077 0.0685 0.7861 0.8032 0.6836 0.2054 0.5811-0.239 0.5639-0.6836 0.8032 0.4102 0.5298 0.9058 0.3247 1.47-0.1196 0.9058 0.393 0.427v0.427l-8.562 4.939-2.239-0.7348-0.7519-0.769 0.957-1.043 0.3076-0.8715 0.7178-3.76-0.06834-0.7349 1.282-1.794zm3.315-90.17-0.8545 2.358-0.6494 0.3759-0.5127 1.282-1.025 0.1195-0.08545 0.8203 0.2905 1.111 0.769 0.5471 0.6836 1.06 2.051 0.5129 0.2564 0.5981-0.7178 3.657 0.5127 1.111 3.11 3.093 0.5981 0.2564 1.418 2.205 2.17 0.0853 0.8545 0.3417 0.4273 0.5129 0.2905 2.375 2.546 1.265 0.5981 1.487 0.7349 0.5981 1.025-0.1195 1.248 0.2564 0.769 1.145 0.2564 0.8886 0.8203 0.6836 0.7178 1.23 0.5469 1.658h1.675l1.658 0.427 1.538 2.341 0.5981 0.4612 2.051 0.7178 1.248 0.1195 0.9399-0.2054 0.6836-1.145 0.769 0.769 0.769-0.0323 0.6494-0.5471 1.316-0.427 1.624-0.9399 1.23-0.2048 1.077-0.9399 0.4614-1.025 6.58-0.8546 3.332-0.9741 0.5471 0.5129 2.991 0.9741 0.8545 0.5471 0.8545-0.0323 1.196-0.5129 1.316 0.2048 1.196 2 0.3927-0.0323 0.1712-0.8887 0.8887-0.1195 1.931-1.401 0.4612-0.0323 1.709 0.8886 0.9912-0.2907 2.905 0.5981 0.5471-1.316 2.307-2.375 5.503-0.3759-0.05168-1.111 0.4276-1.025 0.2564-2.546 1.453-1.436 0.0853-1.111-0.7178-1.111 0.8545-0.9399h0.7178l2.17-1.35 2.683-0.5981 0.9399-0.4612 0.1369-0.5129 1.743-0.6323 4.956 0.6323 2.82-0.2048 0.9399 0.6836 0.5981 0.0323 0.9741-0.5128 0.5981-0.8032 0.3417-0.0853 1.401 0.3759 1.572-0.1195 1.077 0.2048 0.8887 0.5128 0.2222 0.6836-0.2907 0.0853-0.8545 1.692-0.8545 0.2907-0.5129 0.5128-0.2564 0.7691 1.282 0.1195 2.307-0.7691 0.6324 0.0853 0.6494 1.145 1.282 0.3759 2.734-0.2564 1.316 0.3417 1.23 0.8545 0.2907 0.5981 1.025 0.6324 0.5129 0.6324 0.6836 0.0323 0.5639-0.5129 0.9741-0.3759 1.401-0.0853 1.145 0.5129 1.282 2.29 0.5471 0.1705h0.5128l0.5981-0.3759 0.6494-0.7691 3.247-1.316 0.4786-1.436-0.2222-0.3417 0.1195-0.2907 3.281-1.35 0.6836-0.7691 5.212-0.5471 1.658 1.111 0.3417 0.4786-0.0517 0.0194-1.401 0.7178-0.2054 2.939 0.3591 0.3074-0.5639 0.7178v1.179l-0.3591 1.179-0.5128 0.5129-0.8887-0.1537-0.9399 0.6149-0.5129-0.2564-1.196 0.1027-0.8887 0.7177-0.1537 1.128-0.5128 0.4102-1.145 0.2564-0.1537 0.6149 0.5639 0.5128 0.2054 0.7178-0.3074 0.8715-0.8886 0.8716-0.1537 0.4612 0.4612 1.179 0.9912 0.8203v0.5128l-0.8886 1.077 0.1027 1.384-0.3075 0.6149-1.145 0.4612-0.3074 0.9229 0.2054 0.4102-0.8716 0.4954-0.3934 1.213-0.6156 0.4102-0.3249 0.752-0.6324 0.2732-0.3249 0.7178h-0.6836l-1.162 0.7177-0.4612 1.863-2.239 1.299-0.2732 0.5296-1.641 1.401-0.0853 0.3934-0.9058 0.7006-1.572 0.957-2.358-0.4444-1.265 0.3417-1.077 0.6494-0.0517 0.3249 1.76 1.726 2.649 1.401-0.2564 2.29 0.3249 0.5981 0.6149 0.427-0.4444 0.6494-0.3074 1.299 0.6324 0.0853 0.1195 0.3759-0.6149 1.35-0.752 0.4444 0.5813 0.3417-0.1369 0.5639-0.6149 0.1195-0.4612 0.9741-0.9571 0.8887-1.453 0.3075-0.7177 1.025-0.9058 0.6324-0.3249 1.025-0.4954 0.3759 1.333 1.213 0.3249 1.333-1.128 1.367-0.2732 0.8374-0.2054 0.1369-0.2564-0.2396-0.4954-0.8545-0.8374-0.0194-0.2396-0.5981-0.6494 0.2048-0.4612 0.8887h-0.6324l-0.5639 0.3934-2.273-0.239-0.5639 0.5296-2.461 0.7178-1.145 1.077-1.196 0.2048-0.9912-0.3075-0.9912 0.2564-0.1369 1.47-1.265 0.0517-0.427 0.7178-1.521 0.0517-1.025 0.5981v0.3417l-1.572 0.1369-0.1712 0.3249-1.453-0.2732-0.1369 0.7861-0.3934 0.3927-0.6324-0.4444-0.0194-1.042-0.6324-0.239-0.8374 0.752-1.453 0.5297-0.7007-0.3074-0.6156 0.7519-0.7007-0.8203-1.094-2.068-0.5813-0.4954-0.9399-0.0517-1.401 1.948 0.3934 1.23-0.1712 0.1195h-0.6494l-1.316-0.5296-1.846-0.188-0.3249 0.3075 0.5297 1.914-0.1195 0.5296-2.068 0.5813-0.6324-0.2564-0.8374-0.9058-0.239 1.47 0.4954 1.299-1.145-0.2564-0.2564 0.1195-0.2732 0.9741-0.7861 0.4444-1.726-0.1195-1.316 0.4612-0.3759 0.5129-1.589 0.957-1.008 0.0685-0.5129 0.6323 0.3075 1.179-0.8032 0.8203-0.8203 0.2564-0.4612 0.9229 0.5297 1.094-0.4444 0.8203 0.5639 0.4954-0.2054 0.5129-2.034 0.3417-0.5297 0.4444-1.897 0.0194-0.3759 0.3075-0.2054 0.9228h-0.5129l-0.6149 1.282-1.077 0.5639-0.2732 1.025-0.7177 0.8203-0.3591 0.0685 0.06847 0.4954-1.897-0.3759-0.2054 0.9058-0.6494-0.239 0.239 1.35-0.1369 1.111-0.5297-0.239-0.06847-0.8374-0.4612-0.2732-1.401 0.8374 0.4443 0.6665 0.1195 0.7691-1.384 0.3759-0.6324-0.7178-0.8203 0.2564-0.5127 0.5129-0.8374-0.6665-0.7519 0.9228-1.504 0.3759-0.4956 0.7178-0.9399 0.6493 0.06834 1.333 0.7519 0.188 0.3076 0.7519 0.4443 0.3249 0.7178-0.1705 0.3076-0.239 0.188-0.769 0.7178-0.3075 0.4956 0.2732 0.376 0.8886 0.2051 2.051-0.2564 0.6494-0.6324 0.5813-0.188 0.752-0.05103 1.094 0.564 0.7007-0.06834 0.6324-0.5811 0.7177 0.2564 0.7178 0.5811 0.3934 0.8887-0.239 1.521 0.2054 0.06834 0.2564-0.2564 0.6836 0.1196 0.7177-1.196 1.008 1.162 2.205-0.06834 0.3934-0.3247 0.3934 0.05103 0.4954-1.06 1.23 1.179 1.931 0.8887 3.11 0.1367 2.239 0.9057 3.52-0.5639 1.401 0.769 0.4612 0.5813-0.0194 0.2564 0.7691-0.8887 1.555-1.538 0.769-2.478 0.6324-0.2564 0.9741-1.06 0.8887-2.017 0.3417-1.333 0.8203-2.068 0.7007-0.6494 0.4954-0.5811 1.606-2.273 1.418-0.5811-0.239 0.1367-0.5129-0.3247-1.179 0.1367-1.436-0.6324-1.487-0.8032-0.9741-1.094-0.1195-1.846 0.5639-2.239 1.077-3.333 2.734-0.3418-0.4612-0.8032-0.1712-0.2905-1.606-0.5811-0.9741 0.9229-1.829 0.1709-1.025-0.5811-0.8032-0.7007-0.3249-0.3076-2.837-2.153-0.6324 1.145-1.367 0.4273-2.153-1.777-6.494-1.248-1.487 0.06834-1.897 0.8374-2.495 0.0168-1.162-1.196-3.076-1.179-0.8545-2.854-1.213-1.333-1.282 0.3247-1.572 2.29-1.35 1.179-2.051 1.111-5.691 0.0168-2.598-0.376-1.265-0.3589-0.6494-1.128-0.8887-1.367-0.3075-1.487-1.88 0.8887-2.393-3.281-1.077-2-2.751-1.145-0.7006-1.248 0.8374-1.931-1.282-0.7007-1.299-0.5127-0.4612-3.384-0.9399-0.4956-0.4612-0.8203 0.2054 0.3418 1.436-0.4443 0.7007-0.4443 0.1369-2.939-0.9741-0.957-0.9741-0.7861-1.521 0.3418-4.443 0.7861 0.2048 0.6152 0.6324 1.965 0.5807 1.35 0.0685 1.794 1.077 0.03423-0.8715-1.658-1.248-1.487-0.0517-0.393-0.7861 0.4614-0.7862 0.06834-1.128-2.427 0.0517-0.6836 0.2222-2.871-1.025-1.23-1.384-0.7349-3.298-1.692-4.409 0.5811-1.008 1.094-0.2222-0.2905-1.384 1.931-3.059 0.6494-2.751-0.3418-2.017-1.436-3.23-1.88-1.982-1.401-0.4102-2.102-0.0853-0.4785-0.4444 0.05103-1.077 0.769-1.606v-0.8886l-1.213-1.436 0.8032-3.623-0.4614-1.572-1.248-1.35 0.4273-1.487-1.282-1.521 0.2564-0.7348 1.179-0.9399 0.8887-0.0853 1.145-1.179 0.6665-1.948-0.7349-2.427-0.8374-0.7178-0.8032-2.324 0.2222-0.3417 1.248 0.2907v-1.299l1.025-1.914 1.248-1.248 0.393-1.35-0.3418-2.153 0.2222-1.521 0.6324-1.179 1.265-1.179 3.794-2.29 0.9229-1.008v-0.7691l0.8545-1.863 1.196-1.641 0.1025-1.794-0.4443-1.042 0.1196-0.4444 0.8032-0.2907 2.358-0.0517 0.5298-0.7519 0.8032-0.3417 2.888-0.0517 2.068-2.393zm-23.87-22.85-0.2905 0.1027-1.658-1.265 1.572-1.316 0.5298-1.794 0.8203-0.2907 0.4614 0.1369 0.3076 0.5981-0.3076 2.546zm-91.62 0.3759-0.6494 0.0323-0.4443-0.4612-0.564-4.597 0.2051-1.504 0.3076-0.06847 4.358 2.427-1.042 2.29-1.487 1.504zm76.02-24.69-3.914 0.8203-2.495-1.384 1.025-1.436 2.136-1.555-1.077-0.6324-3.059-1.008-1.675-3.162-0.393-1.914 1.008-1.213 1.265-0.3591 3.35-3.503 2.068 0.4786 0.188 1.436 0.376 0.8374 3.76 3.709 0.2734 3.059-0.376 1.333z" style="stroke-width:1.709" title="Kalimantan Barat"/>
  <path id="ID-KI" d="m271.9 100.5 2.461 2.683 1.265 2.102-0.0323 0.7349-1.043 1.572-4.631 4.187-1.709-0.7177-0.5129 0.0194 0.8033 0.752 0.3591 1.213-0.1537 3.709 0.2564 1.025 1.367 1.555 3.931 2.717 2.478 2.495 8.425 4.956 0.9057 2.307 2.256 1.042 1.008-0.1537 1.025 0.3075 5.298 4.546 0.5981 1.572 1.299 1.521 2 0.8033 0.4612-0.0517 2.136 0.7007 0.3075 0.2732 0.1195 1.624-0.9571 1.367-1.248 1.179-4.136 2.854-3.486-1.316-5.076 0.4786-4.768-0.427-5.264-0.9912-2.786-1.265-1.196-1.23-1.145-3.076-1.145-0.9741-1.384-0.6836-0.4102 0.1537-0.0517 0.7519 4.102 7.007 0.1537 1.265-0.3927 0.6324-0.6495 0.1195-0.5813-0.1712-1.282-1.196-0.9912-0.1712-2.717 0.8715-2.051 2-0.6149 1.316-0.0193 1.555-2.922 6.033-1.555 1.128-1.384 2.957-1.213 3.589-0.4102 2.102 0.752 2.102 0.8032 0.7178 0.2564 1.179-0.3249 0.7349-1.077 1.145-1.35 4.221 0.0194 0.8032 1.025 2.188-0.7691 5.332 4.392-2.854 0.7691-0.239 0.3591 0.1537 0.1195 0.4612-1.812 6.135 1.401 3.025 0.0517 0.752-0.239 0.3759-4.768 2.119-3.657-0.2048-1.196-1.418-0.7177 0.4444-0.239 1.367-3.332 4.016-3.503 5.708-0.6494 0.5639-2.393 1.06-3.145 0.5639-2.256-5.076 0.5296-1.914-0.1369-0.3417-0.4102 0.1027-0.8203 2.205 0.0193 0.9228 1.196 1.196 1.008 2.239-0.9399 3.418-3.845 1.333-2.564 1.794-0.2222 0.2732 0.1537 1.299 0.8374 1.35-0.188 0.8203-0.5639 0.6836-4.05 1.606-2.837 1.384-2.444 1.538 0.2054 0.5296 0.9058 0.4612 1.196-0.2564 1.008-0.8032 1.401-0.3075 1.23 0.1369 0.5981 0.3591 0.4444 3.828-0.0685 3.879-0.6665 0.8374-1.863 0.6494-0.4269 0.4786 2.256 0.4786h1.384l0.7007-0.6836 0.5813 1.265-0.0853 0.5813 2.427 0.6494-0.188 2.375-1.196 4.221-2.273-1.043-1.88-0.4954-4.614-0.0517-2.187-0.7178-4.666-0.2564-0.6665-0.1195-0.9058-0.8374-0.9229 0.8374-1.333 0.4954-0.1712 0.5296-0.6665 0.6156-0.9228 0.2907-0.4786-0.9058 0.0517-1.743-1.213-2.957 0.3075-2.598 0.6156-0.957-0.2564-0.427-1.025-0.427-0.8545 0.239-0.5981-0.4786-0.3075 0.0685 0.3591-1.025-0.4786-0.5471v-0.7178l0.5471-1.213 0.1195-1.213-0.239-3.196-0.6149-1.265-0.8374-0.957-0.188-0.8545 0.239-0.5296-1.213-0.9741-0.239-0.5471 0.239-1.196-0.4786-0.6665-1.042-0.188-1.025 0.427-0.3074-0.5981 0.1195-0.5981 1.094-0.9741 0.7349-1.145 1.401-1.196 0.5471 0.1195-0.2564 1.316 0.427 0.1195 1.829-2.17 0.4276-1.692-0.0194 0.0194 0.3934-2.222 0.769-0.9058 1.555-1.128 0.0517-0.4444-1.299-1.128-0.5471 0.1195-0.5813 0.5639-0.3934-0.239-0.3249-1.179-0.5813-0.239-0.6836-0.752-0.7177 0.0853-0.3591-1.624-0.3934-0.4954-2.256-1.436-1.025-1.675-1.35-1.179-2.871-0.5128-0.7007-1.726 0.0517-2.034-0.4786-3.247-0.8546-0.7349-0.6664-1.76-1.23-1.265-0.3934-0.1027 0.3591-1.863-0.6324-0.1712-0.3249-2.495 0.7177-0.1369 0.0685-0.8203-0.4954-0.7691 0.9399-1.624v-1.145l0.7519-0.4444 0.7178-0.9912-0.6149-1.914-4.136 2-0.4954 1.128-0.8033 0.0194-0.8032 0.3934-1.299 1.128-1.538-0.4102-1.743 0.3249v-0.9058l-0.3591-0.8033 0.1369-1.094-0.769-1.453-0.1712-2.461-0.4102-0.5297-0.6324 0.0323-0.5471-0.5981-1.008 0.188-0.4954-0.8545 0.6324-1.504-0.1369-0.7177 0.7349-0.8203 0.0323-0.5981 0.6665-0.1195 0.3249-0.3417 0.9058-1.931 1.145-0.7349 0.4612 0.1027 0.188 0.3591 0.5296-0.2732 1.248-0.0853 0.2907 0.0323 0.5813 0.8203 0.2564-0.5471 2.034-1.418 0.3417-0.6665 0.0853-1.213-1.111-0.9741-0.5471-1.111-1.248-1.47-0.9571-1.982-0.4954-2.751-0.6665-1.196-0.769-0.6324-0.8716-0.239-1.367 1.282-0.0685 0.3934 0.5129 0.8203-0.8033-0.2054-0.3417-0.7178-0.9058-0.5639-0.6665 0.4102-0.8545-0.1195-1.401 1.025-0.5471-0.239-0.9399 0.1712-0.8374 1.111-1.521 1.094-1.35 0.0517v1.077l-0.3591 0.6665-1.709 0.0517-1.145 0.769 0.1027 1.145-0.3591 0.1027-1.196-0.2054-0.8715-0.7349-1.248-0.3074-2.649 0.3074-0.7178-0.3074-0.1712-0.7178-1.077-0.5639v-0.3591l0.5639-0.5639-0.5639-1.658-1.248-0.769-0.5128 0.2048-0.6149-0.1537-2.188 1.128-0.9229-0.1537-1.196 0.4102-0.4102-0.1027-0.4269 0.3075-0.7178-0.5639h-0.8374l-0.2054-0.4102 0.3075-0.9229 1.145-0.4612 0.3075-0.6156-0.1027-1.401 0.8887-1.077v-0.5129l-0.9912-0.8203-0.4612-1.196 0.1537-0.4612 0.8887-0.8716 0.3075-0.8716-0.2054-0.7349-0.5813-0.5129 0.1537-0.6149 1.145-0.2564 0.5129-0.4102 0.1712-1.128 0.8716-0.7349 1.196-0.1027 0.5128 0.2564 0.94-0.6149 0.8716 0.1537 0.5296-0.5129 0.3591-1.179v-1.179l0.5639-0.7349-0.3591-0.3074 0.2054-2.939 1.401-0.7178 0.6324-0.2564 0.4102-0.7691 1.196-0.1537 2.7-1.145 0.9741-0.9229 4.409 2.581 0.6836-0.2048 0.3591-0.7349 1.35 0.7178 0.4276 0.7862 1.06 0.8716 2.717 0.7861 1.333 1.487 0.3417 1.743 0.3591 0.4444 1.401-0.7862 1.23 0.1712 0.8886 0.3591 0.5296 0.6836 0.2564 1.06 0.7007 0.7861 0.7862 0.3417 1.145 0.0853 1.504-1.658h2.29l0.9571 0.4444 1.316 0.1712 1.418-1.572 1.76 0.3417 1.316-1.572 0.8716-0.4276 0.4444-2.717 0.7007-0.7007 3.35 0.1027 3.948-1.487 3.965-0.0853 1.76-1.487 0.957-2.017 1.504-1.316 2.717-3.657 2.205-4.204-0.5296-2 0.1712-1.145 0.8032-0.9571 1.846-0.957 0.4276-1.145 1.145-0.7007 0.2732-1.401 0.0853-3.76 0.3417-1.213 1.418-2.358 0.6156-0.4444 0.5296-2.273 0.427-0.5297 0.8886-0.08526 0.9571 0.9741 1.333 0.5129 0.5129 0.5296v0.7007l1.06 0.5296 1.23-0.1027 1.76-0.5128 2.991-1.931 3.862-1.316 3.435-1.999 2.205-0.08526 2.461 0.5129 2.717-0.7007h1.504l0.8716 1.931 1.06 0.7861 2.205 1.043 0.8715 0.188 1.846-0.4444 0.7861 0.5297 1.948 2.358 2.358 0.8716 0.6324 0.0853 2.187-1.316 2.205-0.2564" style="stroke-width:1.709" title="Kalimantan Timur"/>
  <path id="ID-KS" d="m120.9 176-0.0372 0.0437-0.2407-0.3895 0.1422-0.3611 0.1882-0.2385 0.0504-0.0132 0.0438 0.0985v0.1291zm-1.031 1.521-0.1226 0.035-0.116-0.0109-0.0153-0.046 0.0131-0.1685 0.0853-0.2801-0.0131-0.3917-0.197-0.2735-0.0547-0.1772 4e-3 -0.1444 0.4158-1.217 0.5361-0.383 0.0504 0.0131 0.0132 0.0766-0.0787 0.5011 0.0591 0.5799 0.1794 0.8709-0.0525 0.5318-0.5493 0.4114zm-1.387-10.26-0.0547 0.2166-0.232 0.2779-0.0547-0.0153 0.0306-0.1707-0.0701-0.0153-0.1794 0.1554-0.0941 0.1466-0.14 0.1226-0.0153 0.0766 0.0394 0.0766 0.1313-0.0547 0.1313 0.0241 0.0613 0.0854-0.0306 0.1554 0.0306 0.07 0.1554 0.1226-0.0306 0.07 0.0241 0.1072 0.1094 0.1226 0.0766 0.1619 0.0306 0.4092-0.0153 0.1554-0.0701 0.1554v0.0919l0.0613 0.0701-0.046 0.1313 0.0394-9e-3 0.0766 0.0613 0.1094-0.0306 0.1313 0.0547 0.0306 0.0547-0.0766 0.1226-0.0394 0.3326 0.1554 0.3786-9e-3 0.2232 0.0613 0.116 0.116-0.0394 0.0853-0.0766 0.0241-0.0701 0.1707-0.0613 0.116-0.1072 0.116 0.1072 0.0854 0.0153 0.5974 0.0306 0.2801 0.0919 0.5908 9e-3 0.2407 0.0613 0.291 0.1357-0.0854 0.4092-0.1138 0.1444-0.0875 4e-3 -0.035-0.035-0.0263-0.1335-0.1663-0.0875-0.4333 0.0875-0.0109 0.3545 0.221 0.1991 0.0438 0.6806-0.0722 0.186-0.3042 0.3939-0.1116 0.0569-0.0504-0.0109-0.0525-0.0766-0.046-0.2626-0.2079-0.3611-0.0438-0.0416-0.0284 0.0306-0.0832 0.3764 0.0416 0.1948 0.2144 0.3064 0.1247 0.1094 0.0219 0.2144-0.1685 0.0853-0.2735 0.3742-0.3326 0.628-0.0832 0.5361-0.0525 0.1028-0.0832 0.0481-0.4333 0.0634-0.2516 0.2407-0.1422 0.0919-0.709 0.302-0.9913 0.3567-1.357 0.5668-0.8294 0.4989-0.2714 0.035-0.0788-0.0853-0.0285-0.1247-2e-3 -1.602-0.0241-0.1838-0.0766-0.1532-0.2232-0.2932-0.1554-0.1444-0.1598 0.0175-0.337-0.1926v-0.1991l0.1707-0.5186 0.3195-0.5011 0.0853-0.4946 0.3348-0.6565 0.2166-0.0613 0.0766-0.0613 0.0394-0.046-0.0306-0.0547 0.046-0.0853 0.0787 0.0241 0.186-0.0701 0.1007-0.1313 0.07-0.3939 0.1532-0.1204 0.1094-0.1707-9e-3 -0.14 0.046-0.0701 0.1247 9e-3 1.291-0.9344 0.0853 0.0613 0.0701-9e-3 0.046-0.2867 0.0854-0.1772-0.1554-0.3392v-0.0853l0.2101-0.1619 0.0548-0.1773-0.1466-0.2013-0.0241-0.1707 0.1554-0.4858 0.1948-0.8491 0.0306-0.0394 0.4048-0.0306 0.3961-0.1466 0.0853-0.07 0.1094 0.0241 0.2166-0.1707z" style="stroke-width:.2188" title="Kalimantan Selatan"/>
  <path id="ID-KT" d="m58.05 260.9 0.5981-1.589 0.6494-0.4954 2.051-0.7007 1.333-0.8032 2.017-0.3591 1.06-0.8887 0.2564-0.9741 2.478-0.6324 1.555-0.7691 0.8887-1.555-0.2732-0.769-0.5813 0.0323-0.769-0.4786 0.5639-1.384-0.9058-3.538-0.1538-2.222-0.8887-3.127-1.162-1.931 1.042-1.23-0.03423-0.4954 0.3247-0.3934 0.06834-0.3927-1.179-2.205 1.196-1.008-0.1196-0.7178 0.2734-0.6665-0.08546-0.2564-1.521-0.2222-0.8887 0.239-0.5811-0.3934-0.2564-0.7177 0.5811-0.7349 0.06834-0.6149-0.5469-0.7007 0.03423-1.094 0.188-0.7519 0.6324-0.5813 0.2564-0.6494-0.2051-2.051-0.376-0.8887-0.4956-0.2732-0.7178 0.3074-0.188 0.7691-0.3076 0.2222-0.7178 0.1712-0.4443-0.3249-0.3076-0.752-0.752-0.188-0.06834-1.316 0.9399-0.6494 0.4785-0.7349 1.504-0.3591 0.752-0.94 0.8374 0.6836 0.5127-0.5129 0.8203-0.2564 0.6324 0.7177 1.384-0.3759-0.1195-0.769-0.4443-0.6665 1.401-0.8374 0.4786 0.2732 0.06847 0.8374 0.5297 0.239 0.1537-1.128-0.239-1.35 0.6494 0.239 0.2222-0.9058 1.897 0.3759-0.08526-0.4954 0.3591-0.0685 0.7177-0.8203 0.2907-1.008 1.077-0.5639 0.6156-1.282h0.5129l0.2054-0.9229 0.3759-0.3075 1.897-0.0194 0.5297-0.4444 2.051-0.3591 0.2054-0.5129-0.5639-0.4786 0.4444-0.8203-0.5471-1.094 0.4786-0.9228 0.8203-0.2564 0.7861-0.8203-0.2907-1.179 0.5129-0.6324 1.008-0.0685 1.589-0.9571 0.3759-0.4954 1.299-0.4786 1.743 0.1195 0.7861-0.4444 0.2732-0.9741 0.2564-0.1195 1.162 0.2564-0.4954-1.299 0.239-1.47 0.8374 0.9058 0.6324 0.2564 2.051-0.5813 0.1195-0.5296-0.5297-1.897 0.3249-0.3074 1.846 0.188 1.316 0.5296h0.6494l0.1712-0.1195-0.4102-1.23 1.419-1.948 0.9228 0.0517 0.5981 0.4786 1.094 2.068 0.7007 0.8203 0.6149-0.752 0.7007 0.3074 1.453-0.5296 0.8374-0.752 0.6324 0.239 0.0193 1.043 0.6324 0.4444 0.4102-0.3934 0.1369-0.8033 1.453 0.2907 0.1537-0.3249 1.572-0.1369v-0.3591l1.025-0.5981 1.521-0.0517 0.427-0.7178 1.265-0.0517 0.1369-1.453 0.9912-0.2564 0.9741 0.2907 1.196-0.2048 1.145-1.077 2.461-0.7177 0.5639-0.5296 2.273 0.239 0.5639-0.4102h0.6324l0.4612-0.8716 0.6665-0.2048 0.2222 0.5981 0.8545 0.0194 0.4786 0.8716 0.2564 0.2222 0.2222-0.1369 0.2732-0.8374 1.128-1.367-0.3249-1.333-1.333-1.213 0.4786-0.3591 0.3417-1.025 0.9058-0.6324 0.7178-1.025 1.47-0.3074 0.957-0.8715 0.4612-0.9742 0.6156-0.1195 0.1369-0.5639-0.5813-0.3417 0.7519-0.4444 0.5981-1.35-0.1195-0.3759-0.6324-0.0853 0.3074-1.316 0.4444-0.6495-0.5981-0.4102-0.3417-0.5981 0.2732-2.307-2.649-1.384-1.76-1.726 0.0517-0.3249 1.077-0.6494 1.265-0.3417 2.358 0.4276 1.572-0.9399 0.9058-0.7007 0.1027-0.3934 1.641-1.401 0.2732-0.5296 2.256-1.299 0.4612-1.863 1.162-0.7177h0.6836l0.3249-0.7178 0.6324-0.2907 0.3249-0.7349 0.6156-0.4269 0.3934-1.213 0.8716-0.4954h0.8374l0.7178 0.5639 0.427-0.3074 0.4102 0.1027 1.196-0.4102 0.9229 0.1537 2.188-1.128 0.6149 0.1537 0.5128-0.2048 1.248 0.769 0.5639 1.658-0.5639 0.5639v0.3591l1.077 0.5639 0.1712 0.7178 0.7178 0.3075 2.649-0.3075 1.248 0.3075 0.8715 0.7348 1.196 0.2054 0.3591-0.1027-0.1027-1.145 1.145-0.769 1.709-0.0517 0.3591-0.6665v-1.077l1.35-0.0517 1.521-1.094 0.8374-1.111 0.9399-0.1712 0.5471 0.239 1.401-1.025 0.8545 0.1195 0.6665-0.4102 0.9058 0.5639 0.3417 0.7178 0.8033 0.2054-0.5129-0.8203 0.0685-0.3934 1.367-1.282 0.8716 0.239 0.769 0.6323 0.6665 1.196 0.4954 2.751 0.9571 1.982 1.248 1.47 0.5471 1.111 1.111 0.9741-0.0853 1.213-0.3417 0.6665-2.034 1.418-0.2564 0.5471-0.5813-0.8203-0.2907-0.0323-1.248 0.0853-0.5296 0.2732-0.188-0.3591-0.4612-0.1027-1.145 0.7349-0.9058 1.931-0.3249 0.3417-0.6664 0.1195-0.0323 0.5981-0.7349 0.8203 0.1369 0.7178-0.6324 1.504 0.4954 0.8546 1.008-0.188 0.5471 0.5981 0.6324-0.0323 0.4102 0.5297 0.1712 2.461 0.769 1.453-0.1369 1.094 0.3591 0.8033v0.9058l1.743-0.3249 1.538 0.4102 1.299-1.128 0.8032-0.3934 0.8033-0.0194 0.4954-1.128 4.136-2 0.6149 1.914-0.7178 0.9912-0.7519 0.4444v1.145l-0.94 1.624 0.4954 0.7691-0.0685 0.8203-0.7177 0.1369 0.3249 2.495 0.6324 0.1712-0.3591 1.863 0.3934 0.1027 1.23 1.265 0.6664 1.76 0.8546 0.7349 0.4786 3.247-0.0517 2.034 0.7007 1.726 2.871 0.5128 1.35 1.179 1.025 1.675 2.256 1.436 0.3934 0.4954 0.3591 1.624 0.7177-0.0853 0.6836 0.752 0.5813 0.239 0.3249 1.179 0.3934 0.239 0.5813-0.5639 0.5471-0.1195 1.299 1.128-0.0517 0.4444-1.555 1.128-0.769 0.9058-0.3934 2.222-0.5981 0.5296-1.692 1.333-0.8545-0.188-0.6665 0.5471-3.093 1.145-3.162 0.239-0.239 0.3075-1.521 6.631-1.213 3.794 0.188 1.333 1.145 1.572-0.4269 1.384-1.641 1.265v0.6665l1.213 2.649-0.6665 1.384-0.3591 2.239-0.5471 0.0517-0.6665-0.4786-10.07 7.297-0.9742-0.0517-0.3759 0.5471 0.0685 1.077-0.8545 1.333-1.196 0.94-0.5471 3.076-0.7861 1.025-1.453 0.5297-0.6149-0.1712-0.3591 0.6665 0.239 0.4102-0.3075 0.3759-0.5981 0.4786-1.709 0.4786-2.598 5.127-0.6665 3.862-2.495 3.931-1.333 4.033v1.555l-4.136-1.965-3.179-0.8545-2.085 0.1537-6.135 2.939-3.162 0.4786-1.367-0.0517-1.829-1.111 0.8374-2.666 0.1195-2.7-0.4444-1.555-0.6149-0.9058-3.862 0.239-0.7691 0.8374-0.2907 1.025-2.17 0.4954-3.572-2.273-5.332-5.571-0.8887-0.1195-2.512 2.734-0.188 0.9741 0.752 0.9741-0.5128 1.709-5.657 3.469-2.017 1.418-1.196 1.23-2.991 0.9229-0.5471-0.0517-3.384-2.683-3.298-1.145-1.777-0.0323-2.478 0.957-6.306 6.016-1.042 0.5813-0.7007 0.1027-2.478-1.025 1.111-3.896-0.8032-6.255v-1.401l0.4786-1.846-0.05168-1.23-2.324-4.153-0.6836-2.734-0.8203-0.1195 0.1195 1.367-0.9742 1.436 0.7349 0.5981-0.1705 0.7691-1.606 0.2907-0.5129 0.5639-2.119 1.316-0.2907-0.8033-1.555-1.367-1.265-0.9742-0.7349-0.1195h-2.529l-5.212 2.991-2.085 0.9058-1.658 0.5129-2.529 0.3417-3.726-2.632z" style="stroke-width:1.709" title="Kalimantan Tengah"/>
  <path id="ID-KU" d="m262.8 76.43-0.9571 0.7349-2.205-1.743-0.8033-2.119 0.0517-0.7007 0.2732-0.3759 2.495-0.2054 1.401 0.4276 0.2564 0.5471zm-8.084-8.186 3.76 2.222-0.0194 0.3417-0.9228 0.8032-2.888-1.265-3.298-0.1712-1.094-0.5297-0.6836-0.9229 0.1369-0.7349 1.555-0.6494zm9.724-12.65-1.333 0.4954-2.034-1.487-0.3075-1.521 0.1195-0.3759 1.333-1.453 0.8374 0.08526 2.136 1.726 0.1712 0.8033zm4.751-5.657 0.7349 0.3249 0.7177 3.435-0.957 0.7519-0.8716 0.1369-1.043-0.5297-6.016-4.819 0.1027-0.4444 1.538-1.265 0.8716-0.05168 1.709 0.5981 0.3249 0.6494 0.9912 0.7177zm-64.87 2.461 0.0685-1.589 0.5639-1.145 0.6324 0.05168 1.35-1.555 0.6836 0.1027 0.239 0.5639 0.7007-0.188 0.2222-0.9741 1.23-1.025-0.239-0.7178 0.2054-1.777 0.9058-0.3249 0.5639 0.9741 2.581 0.5129 0.4612 0.3417 0.188 0.8374 1.111 0.8545 0.3417-0.2222 0.6665-1.299 1.453-0.5639 0.2222-1.094 0.2564-0.188 2.41 0.3591 0.5129 0.3075 2.598-0.5981 2 1.658 0.3417 1.094 1.008-0.239 0.3934-0.9229 0.6324 0.2732 0.8032-0.1369-0.0853-1.06 0.9229-1.145 0.7007 0.769 0.6494 0.2054 0.4276 1.043 1.316-0.4102 0.9058 0.2732 0.5296-0.1712 0.4786-0.2732 0.4444-0.8545 0.7007 0.427 0.6494 0.8203 0.4444-0.188 0.8374 0.4786 1.179-0.3417 0.9058-0.7006 1.248 0.3075 0.4954 0.3934 1.111 0.1027 0.4786 0.5129 0.5813-0.6665 1.897 0.2564 1.111-0.2907 1.008 0.188 1.094-0.2732 0.1537-0.3249 0.9058-0.3591 5.161 3.674 0.6836 1.47 0.4102 0.2564 2.068 0.5807 1.521-0.4444 0.4102 0.2907-1.384 0.8545-1.555 0.4786-2.666-0.7691-0.2907 0.3249v0.957l0.6665 0.5471 1.641 0.3934 4.512 3.794-2.991 0.4444 2.837 1.624 2.666 0.2907 2.17 2.29 0.0685 0.4444-0.427 1.094 1.812 0.5471-0.1369 0.427-2.051 1.914-1.829 0.3591-5.417 0.3927-4.563-0.6494-3.076 0.5129-0.8203 0.4954-0.7519 1.111 0.0517 0.7007 0.957 1.487 2.529 1.589 2.153-0.2564 1.367 0.3591 0.0323 1.436-0.4786 0.8887 3.008 1.572-0.2907 0.4786-2.153 0.2907-1.47 0.5813-0.4954 0.7861-1.658 0.2907-0.2907 0.5807 0.9229 0.5471 3.435 0.5981 4.631 2.017 2.085 3.555-0.4786 2.751-0.0194 2.153 1.743 0.3075 1.367 0.8374 0.3591 0.5639 0.239 2.29 0.3934 1.23 4.751 4.683-1.179 1.008-2.205 0.2564-2.205 1.316-0.6149-0.0853-2.376-0.8716-1.931-2.358-0.7861-0.5297-1.846 0.4444-0.8716-0.1712-2.205-1.043-1.06-0.7861-0.8716-1.931h-1.487l-2.734 0.7007-2.461-0.5297-2.205 0.08526-3.435 2.017-3.862 1.316-2.991 1.931-1.76 0.5296-1.23 0.0853-1.06-0.5296v-0.7007l-0.4954-0.5296-1.316-0.5296-0.9741-0.9571-0.8716 0.08526-0.4444 0.5297-0.5296 2.273-0.6156 0.4444-1.401 2.358-0.3591 1.23-0.0853 3.76-0.2564 1.401-1.145 0.7007-0.4444 1.128-1.846 0.957-0.7861 0.957-0.1712 1.145 0.5296 2.017-2.205 4.187-2.734 3.674-1.487 1.316-0.9741 2.017-1.76 1.487-3.965 0.0853-3.948 1.487-3.35-0.0853-0.7007 0.7007-0.4444 2.7-0.8716 0.4444-1.316 1.572-1.76-0.3417-1.401 1.572-1.316-0.1712-0.9742-0.4444h-2.29l-1.487 1.658-1.145-0.0853-0.7861-0.3417-0.7007-0.7861-0.2564-1.043-0.5296-0.7007-0.8716-0.3417-1.23-0.1712-1.401 0.7862-0.3591-0.4444-0.3591-1.743-1.316-1.487-2.717-0.7862-1.06-0.8715-0.4444-0.7861-1.35-0.7178 0.8374-1.384-0.3075-0.5129 0.2054-1.282 1.367-0.8033 0.8887-1.572 0.6494-0.5297 0.2222-1.692-0.188-2.034-0.2222-0.2222 0.8374-1.128-0.1195-0.4612 0.957-0.2732 0.9228 0.4269 0.769-1.094 1.145-0.188 0.6149-0.5813-0.6836-1.384 0.0853-0.3934 1.179-0.8886-0.0323-0.3759-0.8716-0.4269-1.299 0.5813-0.3417-0.7691 0.2732-1.641-0.5981-0.3249-0.2732-0.4954-0.0323-1.401 0.5813-2.239 3.145-0.3417 1.333-0.8374 0.0685-0.3934-0.5639-0.7349 0.5296-1.077 1.145 0.188 0.7349-0.3934 0.8716-1.008h1.145l0.3417-1.008 0.7691-0.7007 0.9912-0.3075 1.333 0.0323 1.025-0.8545 0.1195-0.5297-0.8032-0.5813-0.188-0.5807-1.145-1.35-1.692 0.5297-0.5296-0.8033 0.5296-0.6494 0.1537-0.7007v-0.8374l-0.3934-0.239v-0.6494l1.025-0.8887v-0.7349l0.3074-0.5813-0.3074-0.4612-0.8716-0.2222-0.0685-0.3075 1.641-1.316 0.4276-1.812 2.717-1.812 0.5813-1.418 1.043 1.111 0.0685 0.7007 2.102-0.1537 1.384-1.316 1.76-0.239 0.3075-0.5813v-1.436l0.2222-0.427 1.384-1.145v-0.3417l-1.213-0.8887-0.0853-0.3075 0.7178-4.802 1.077-2.153 0.5813 0.0323 0.6836 1.077 0.6836-0.9912-0.9912-1.726-0.2222-1.88-0.6495-0.8032-0.2732-1.47 0.0853-2.649 0.239-1.213 0.8887-1.777 0.0685-0.9571-0.0853-0.3075-1.333-0.9571-0.2222-0.5297 1.453-0.3934 0.7691-0.7007 1.145-3.555z" style="stroke-width:1.709" title="Kalimantan Utara"/>
 </g>
</svg>
